# xmcd
#
# Track frame offsets:
#	150
#	10123
#	33903
#	50096
#	64442
#
# Disc length: 1149 seconds
#
# Revision: 1
# Processed by: cddbd v1.5.2PL0 Copyright (c) Steve Scherf et al.
# Submitted via: audiograbber 1.83.01
#
DISCID=3e047b05
DTITLE=Whip - R. Mutt's Blues
DYEAR=2007
DGENRE=Indie
TTITLE0=Beast of Each
TTITLE1=How Can I Turn
TTITLE2=Swim for Sure
TTITLE3=Great Wall of China
TTITLE4=Wrecking Crew
EXTD=
EXTT0=
EXTT1=
EXTT2=
EXTT3=
EXTT4=
PLAYORDER=
